0.16m3min_grf.mot
version=1
nRows=27
nColumns 19
inDegrees=yes
endheader
time	1_ground_force_vx	1_ground_force_vy	1_ground_force_vz	1_ground_force_px	1_ground_force_py	1_ground_force_pz	1_ground_torque_x	1_ground_torque_y	1_ground_torque_z	2_ground_force_vx	2_ground_force_vy	2_ground_force_vz	2_ground_force_px	2_ground_force_py	2_ground_force_pz	2_ground_torque_x	2_ground_torque_y	2_ground_torque_z
            2.502500	          -32.764860	         1068.298521	         -133.230477	           -0.281954	            0.005939	           -0.341230	            0.069922	           -2.279823	            0.284323	           16.889303	         1176.346196	          126.906638	           -0.329870	            0.005292	           -0.697340	            0.059254	            4.127060	            0.445236
            2.503000	          -33.362395	         1074.428286	         -133.386155	           -0.281966	            0.005939	           -0.341283	            0.054021	           -1.739723	            0.215980	           18.589417	         1185.560693	          126.704105	           -0.329911	            0.005291	           -0.697271	            0.063338	            4.039438	            0.431706
            2.503500	          -32.129560	         1080.203711	         -134.923586	           -0.282064	            0.005940	           -0.341418	            0.039976	           -1.343989	            0.167872	           19.404527	         1193.478912	          127.623642	           -0.330076	            0.005290	           -0.697117	            0.067072	            4.125293	            0.441135
            2.504000	          -29.019033	         1086.883808	         -137.149674	           -0.282092	            0.005940	           -0.341466	            0.031611	           -1.183960	            0.149399	           19.422933	         1201.575233	          129.482721	           -0.330220	            0.005290	           -0.697159	            0.069675	            4.310377	            0.464490
            2.504500	          -27.192973	         1093.925381	         -139.692012	           -0.282021	            0.005940	           -0.341314	            0.037459	           -1.506913	            0.192430	           19.256521	         1208.934740	          131.151555	           -0.330314	            0.005289	           -0.697043	            0.069177	            4.342951	            0.471146
            2.505000	          -26.096332	         1099.878838	         -140.678071	           -0.282290	            0.005940	           -0.341323	            0.044574	           -1.878670	            0.240288	           19.507082	         1217.584982	          132.777872	           -0.330407	            0.005289	           -0.697027	            0.069288	            4.324816	            0.471622
            2.505500	          -26.832628	         1105.289752	         -141.386757	           -0.282305	            0.005940	           -0.341351	            0.046687	           -1.923149	            0.246006	           21.254873	         1226.614229	          132.950088	           -0.330419	            0.005289	           -0.697157	            0.071504	            4.126468	            0.447259
            2.506000	          -27.749286	         1109.794355	         -140.952443	           -0.282341	            0.005941	           -0.341548	            0.040405	           -1.615949	            0.205238	           23.331154	         1235.461341	          132.839953	           -0.330441	            0.005288	           -0.697053	            0.073362	            3.884782	            0.417702
            2.506500	          -28.391718	         1115.742365	         -140.741903	           -0.282270	            0.005940	           -0.341526	            0.030065	           -1.181513	            0.149038	           24.851056	         1242.650556	          132.348704	           -0.330600	            0.005287	           -0.696890	            0.074545	            3.727556	            0.397004
            2.507000	          -27.753115	         1120.793738	         -141.638987	           -0.282303	            0.005940	           -0.341427	            0.024062	           -0.971742	            0.122803	           25.193515	         1251.673390	          132.896957	           -0.330657	            0.005287	           -0.696900	            0.074548	            3.703724	            0.393244
            2.507500	          -25.741160	         1127.110277	         -143.221900	           -0.282469	            0.005940	           -0.341402	            0.025335	           -1.109346	            0.140965	           24.276773	         1259.215016	          134.425975	           -0.330677	            0.005287	           -0.696780	            0.073700	            3.822776	            0.408096
            2.508000	          -23.226423	         1131.627585	         -145.547489	           -0.282442	            0.005941	           -0.341558	            0.027856	           -1.357203	            0.174560	           22.982057	         1267.674759	          136.286926	           -0.330723	            0.005287	           -0.696939	            0.073256	            4.040750	            0.434418
            2.508500	          -21.489637	         1136.682709	         -147.272672	           -0.282538	            0.005941	           -0.341635	            0.028105	           -1.486574	            0.192606	           22.015913	         1275.951698	          138.053239	           -0.330709	            0.005287	           -0.696886	            0.070294	            4.073929	            0.440784
            2.509000	          -20.987621	         1141.552309	         -147.803339	           -0.282503	            0.005941	           -0.341701	            0.024112	           -1.311475	            0.169804	           22.268804	         1283.868055	          138.926064	           -0.330785	            0.005287	           -0.696944	            0.066109	            3.811378	            0.412425
            2.509500	          -22.041970	         1146.958489	         -147.364818	           -0.282625	            0.005941	           -0.341608	            0.017892	           -0.931025	            0.119621	           22.894129	         1292.341261	          138.956010	           -0.330888	            0.005286	           -0.696942	            0.062672	            3.537766	            0.380390
            2.510000	          -23.371234	         1152.184001	         -146.880551	           -0.282466	            0.005941	           -0.341610	            0.013169	           -0.649218	            0.082762	           23.096310	         1301.182688	          138.612024	           -0.330831	            0.005287	           -0.696991	            0.061200	            3.447832	            0.367290
            2.510500	          -24.015486	         1156.873354	         -147.500852	           -0.282547	            0.005941	           -0.341607	            0.012760	           -0.614696	            0.078374	           22.883032	         1308.363469	          138.731601	           -0.330865	            0.005286	           -0.696722	            0.060215	            3.442851	            0.365061
            2.511000	          -23.011079	         1160.845475	         -148.862035	           -0.282741	            0.005941	           -0.341729	            0.016818	           -0.848436	            0.108800	           21.593948	         1315.168608	          139.788853	           -0.330961	            0.005285	           -0.696562	            0.057571	            3.506360	            0.372690
            2.511500	          -21.412782	         1166.803308	         -150.904022	           -0.282785	            0.005941	           -0.341697	            0.020674	           -1.126562	            0.145700	           19.408624	         1323.807543	          142.120135	           -0.330963	            0.005285	           -0.696625	            0.052013	            3.547667	            0.380867
            2.512000	          -19.584490	         1172.219239	         -152.673753	           -0.282756	            0.005941	           -0.341668	            0.017838	           -1.067674	            0.139057	           17.698820	         1330.425149	          143.786984	           -0.331019	            0.005285	           -0.696562	            0.048492	            3.645138	            0.393952
            2.512500	          -19.312385	         1176.549403	         -153.527151	           -0.282794	            0.005942	           -0.341801	            0.011360	           -0.692086	            0.090310	           16.776598	         1339.440995	          144.945832	           -0.330984	            0.005285	           -0.696744	            0.045190	            3.607969	            0.390432
            2.513000	          -20.321897	         1179.974816	         -153.647533	           -0.282858	            0.005941	           -0.341782	            0.004209	           -0.244387	            0.031822	           16.512648	         1347.725234	          145.444796	           -0.330932	            0.005286	           -0.696739	            0.041341	            3.374183	            0.364138
            2.513500	          -22.338852	         1184.839799	         -153.208943	           -0.282811	            0.005942	           -0.341842	            0.000094	           -0.005010	            0.000648	           16.628338	         1354.541306	          144.858974	           -0.330962	            0.005285	           -0.696501	            0.039257	            3.197869	            0.341990
            2.514000	          -23.899085	         1189.708065	         -153.459346	           -0.282855	            0.005942	           -0.341888	            0.003174	           -0.157985	            0.020378	           16.364744	         1362.643976	          144.653337	           -0.331055	            0.005284	           -0.696491	            0.036867	            3.069815	            0.325880
            2.514500	          -24.177129	         1194.218297	         -154.310606	           -0.282927	            0.005942	           -0.341820	            0.011342	           -0.560223	            0.072389	           14.747606	         1369.448768	          145.476110	           -0.331136	            0.005284	           -0.696393	            0.034215	            3.177172	            0.337510
            2.515000	          -23.541048	         1199.994984	         -156.167538	           -0.282934	            0.005942	           -0.341809	            0.016745	           -0.853594	            0.111087	           12.796056	         1378.092399	          146.727955	           -0.330928	            0.005284	           -0.696411	            0.031369	            3.378316	            0.359695
            2.515500	          -22.584194	         1203.969801	         -158.216465	           -0.282954	            0.005942	           -0.341911	            0.013021	           -0.694159	            0.091221	           11.320689	         1384.709344	          148.817064	           -0.331017	            0.005284	           -0.696447	            0.027715	            3.389949	            0.364324
